<?xml version="1.0" encoding="UTF-8"?>
<!DOCTYPE svg PUBLIC "-//W3C//DTD SVG 1.1//EN" "http://www.w3.org/Graphics/SVG/1.1/DTD/svg11.dtd">
<svg xmlns="http://www.w3.org/2000/svg" version="1.1" width="1700px" height="200px" style="shape-rendering:geometricPrecision; text-rendering:geometricPrecision; image-rendering:optimizeQuality; fill-rule:evenodd; clip-rule:evenodd" xmlns:xlink="http://www.w3.org/1999/xlink">
<g><path style="opacity:0.996" fill="#fefefe" d="M 1699.5,1.5 C 1699.5,67.5 1699.5,133.5 1699.5,199.5C 1146.17,199.5 592.833,199.5 39.5,199.5C 274.97,173.614 510.47,148.281 746,123.5C 1050.67,89.4187 1355.51,56.2521 1660.5,24C 1670.22,23.6216 1679.55,21.6216 1688.5,18C 1693.66,13.3683 1697.33,7.86828 1699.5,1.5 Z"/></g>
<g><path style="opacity:0.957" fill="#fefefe" d="M -0.5,176.5 C 3.3218,189.128 11.9885,196.295 25.5,198C 26.056,198.383 26.3893,198.883 26.5,199.5C 17.5,199.5 8.5,199.5 -0.5,199.5C -0.5,191.833 -0.5,184.167 -0.5,176.5 Z"/></g>
</svg>
