<svg xmlns="http://www.w3.org/2000/svg" version="1.1" xmlns:xlink="http://www.w3.org/1999/xlink" xmlns:svgjs="http://svgjs.dev/svgjs" viewBox="0 0 22.712848404819905 7.467162910414034"><g transform="matrix(0.748050524927811,0,0,0.748050524927811,3.801919004272958,2.850563695163679)"><rect width="25.227849347756067" height="25.227849347756067" x="-2.5150009429361617" y="-11.433499380909282" fill="#dceac6"></rect><g transform="matrix(1,0,0,1,0,0)" clip-path="url(#SvgjsClipPath24718)"><g clip-path="url(#SvgjsClipPath247131b57d7c4-c1da-4fb2-89fa-45b057288414)"><path d=" M 17.497093845766276 3.2282180064335586 L 17.74401217392919 3.3706438297161307 L 19.704463644148948 2.2386767345939056 L 19.704463644148948 -0.8685803810077473 L 19.457545315986035 -1.0109010810459744 L 19.457545315986035 -0.9688032648869398 L 19.457545315986035 -0.9688032648869398 L 19.457545315986035 2.0962509113113317 L 19.33041896795757 2.169594590251486 L 17.497093845766276 3.2282180064335586 Z" fill="#212245" transform="matrix(1,0,0,1,0,0)" fill-rule="nonzero"></path></g><g clip-path="url(#SvgjsClipPath247131b57d7c4-c1da-4fb2-89fa-45b057288414)"><path d=" M 16.766519643172316 2.2386767345939056 L 18.727335001545583 3.37101580427305 L 18.97426950251532 3.228589980990477 L 17.01344605773864 2.0962509113113317 L 17.01344605773864 0.685011787977728 L 18.23543908203846 -0.020567341672017347 L 19.110759905694024 0.484905649162616 L 19.110759905694024 0.1997871512848972 L 18.23543908203846 -0.3053219513962293 L 16.766519643172316 0.5426749151326784 L 16.766519643172316 2.2386767345939056 Z" fill="#212245" transform="matrix(1,0,0,1,0,0)" fill-rule="nonzero"></path></g><g clip-path="url(#SvgjsClipPath247131b57d7c4-c1da-4fb2-89fa-45b057288414)"><path d=" M 17.00407391618499 2.9430995085558393 L 17.251000330751314 3.0855172454350015 L 19.210982789573215 1.953922124869693 L 19.210982789573215 -1.1533269043285481 L 18.964064461410302 -1.2956556907701866 L 18.964064461410302 1.631711294544511 L 18.964064461410302 1.8114963015871195 L 18.943848452882147 1.8228172663628872 L 17.00407391618499 2.9430995085558393 Z" fill="#212245" transform="matrix(1,0,0,1,0,0)" fill-rule="nonzero"></path></g><g clip-path="url(#SvgjsClipPath247131b57d7c4-c1da-4fb2-89fa-45b057288414)"><path d=" M 17.25990346090711 1.953922124869693 L 19.219610982013034 3.08505632044056 L 19.466068385181504 2.9427275339989203 L 17.506821789070028 1.8114963015871195 L 17.506821789070028 0.9701788042759143 L 18.23543908203846 0.5493057659299141 L 19.110759905694024 1.0547868431679583 L 19.110759905694024 0.7696602588868282 L 18.23543908203846 0.2645996746261696 L 17.25990346090711 0.8278014994138083 L 17.25990346090711 1.953922124869693 Z" fill="#212245" transform="matrix(1,0,0,1,0,0)" fill-rule="nonzero"></path></g><g clip-path="url(#SvgjsClipPath247131b57d7c4-c1da-4fb2-89fa-45b057288414)"><path d=" M 18.23543908203846 3.3717516669834753 L 19.57724025927955 2.597138911411778 L 19.95092104731742 2.3810055210355436 L 19.95092104731742 -0.72619498974223 L 20.197847461883743 -0.583453796726617 L 20.197847461883743 1.3906313496445295 L 20.197847461883743 2.523803318875035 L 19.216449198279232 3.090150754589656 L 18.23543908203846 3.6565062767076864 L 17.988520753875548 3.51418557666946 L 18.23543908203846 3.3717516669834753 Z" fill="#212245" transform="matrix(1,0,0,1,0,0)" fill-rule="nonzero"></path></g><g clip-path="url(#SvgjsClipPath247131b57d7c4-c1da-4fb2-89fa-45b057288414)"><path d=" M 16.273046875 2.523803318875035 L 16.273046875 1.3906313496445295 L 16.273046875 0.25792030540846644 L 17.254420879394278 -0.3088071912664835 L 18.23543908203846 -0.8752031454015716 L 19.110759905694024 -0.3700940427204451 L 19.110759905694024 -0.08496745843931497 L 18.23543908203846 -0.5904485356773594 L 16.51996520316291 0.4002976102705724 L 16.51996520316291 2.3810055210355436 L 18.482373583008194 3.51418557666946 L 18.23543908203846 3.6565062767076864 L 16.273046875 2.523803318875035 Z" fill="#212245" transform="matrix(1,0,0,1,0,0)" fill-rule="nonzero"></path></g></g><g><path d=" M 0.172119140625 0.017578125000000222 L 0.595458984375 0.017578125000000222 L 0.595458984375 0.9375000000000002 Q 0.59619140625 1.0407714843750002 0.5643310546875 1.1304931640625002 Q 0.532470703125 1.2202148437500002 0.47021484375 1.2894287109375002 Q 0.407958984375 1.3586425781250002 0.31787109375 1.4044189453125002 Q 0.227783203125 1.4501953125000002 0.113525390625 1.4648437500000002 L 0.060791015625 1.3762207031250002 Q 0.090087890625 1.3542480468750002 0.1109619140625 1.3293457031250002 Q 0.1318359375 1.3044433593750002 0.1453857421875 1.2718505859375002 Q 0.158935546875 1.2392578125000002 0.16552734375 1.1971435546875002 Q 0.172119140625 1.1550292968750002 0.172119140625 1.0986328125000002 L 0.172119140625 0.017578125000000222 M 0.8745117187500001 0.017578125000000222 L 1.4501953125 0.017578125000000222 Q 1.57177734375 0.017578125000000222 1.6629638671875 0.03808593750000022 Q 1.754150390625 0.05859375000000022 1.8153076171875 0.09631347656250022 Q 1.87646484375 0.13403320312500022 1.9072265625 0.18713378906250022 Q 1.93798828125 0.24023437500000022 1.93798828125 0.3054199218750002 Q 1.93798828125 0.3706054687500002 1.9017333984375 0.4281005859375002 Q 1.865478515625 0.4855957031250002 1.7958984375 0.5273437500000002 Q 1.91015625 0.5603027343750002 1.966552734375 0.6240234375000002 Q 2.02294921875 0.6877441406250002 2.02294921875 0.7800292968750002 Q 2.02294921875 0.8430175781250002 1.9925537109375 0.9016113281250002 Q 1.962158203125 0.9602050781250002 1.9017333984375 1.0056152343750002 Q 1.84130859375 1.0510253906250002 1.75048828125 1.0784912109375002 Q 1.65966796875 1.1059570312500002 1.5380859375 1.1059570312500002 L 0.8745117187500001 1.1059570312500002 L 0.8745117187500001 0.017578125000000222 M 1.34326171875 0.4599609375000002 Q 1.4033203125 0.4599609375000002 1.4443359375 0.4486083984375002 Q 1.4853515625 0.4372558593750002 1.5098876953125 0.4174804687500002 Q 1.534423828125 0.3977050781250002 1.5450439453125 0.3720703125000002 Q 1.5556640625 0.3464355468750002 1.5556640625 0.3186035156250002 Q 1.5556640625 0.2907714843750002 1.5450439453125 0.2651367187500002 Q 1.534423828125 0.23950195312500022 1.5098876953125 0.22009277343750022 Q 1.4853515625 0.20068359375000022 1.4443359375 0.18896484375000022 Q 1.4033203125 0.17724609375000022 1.34326171875 0.17724609375000022 L 1.298583984375 0.17724609375000022 L 1.2978515625 0.4599609375000002 L 1.34326171875 0.4599609375000002 M 1.34326171875 0.9462890625000002 Q 1.408447265625 0.9462890625000002 1.453125 0.9323730468750002 Q 1.497802734375 0.9184570312500002 1.525634765625 0.8942871093750002 Q 1.553466796875 0.8701171875000002 1.56591796875 0.8375244140625002 Q 1.578369140625 0.8049316406250002 1.578369140625 0.7675781250000002 Q 1.578369140625 0.7346191406250002 1.565185546875 0.7031250000000002 Q 1.552001953125 0.6716308593750002 1.5260009765625 0.6470947265625002 Q 1.5 0.6225585937500002 1.4619140625 0.6075439453125002 Q 1.423828125 0.5925292968750002 1.3740234375 0.5925292968750002 L 1.2978515625 0.5925292968750002 L 1.2978515625 0.9462890625000002 L 1.34326171875 0.9462890625000002 M 2.22509765625 0.017578125000000222 L 2.80078125 0.017578125000000222 Q 2.92236328125 0.017578125000000222 3.0135498046875 0.03808593750000022 Q 3.104736328125 0.05859375000000022 3.1658935546875 0.09631347656250022 Q 3.22705078125 0.13403320312500022 3.2578125 0.18713378906250022 Q 3.28857421875 0.24023437500000022 3.28857421875 0.3054199218750002 Q 3.28857421875 0.3706054687500002 3.2523193359375 0.4281005859375002 Q 3.216064453125 0.4855957031250002 3.146484375 0.5273437500000002 Q 3.2607421875 0.5603027343750002 3.317138671875 0.6240234375000002 Q 3.37353515625 0.6877441406250002 3.37353515625 0.7800292968750002 Q 3.37353515625 0.8430175781250002 3.3431396484375 0.9016113281250002 Q 3.312744140625 0.9602050781250002 3.2523193359375 1.0056152343750002 Q 3.19189453125 1.0510253906250002 3.10107421875 1.0784912109375002 Q 3.01025390625 1.1059570312500002 2.888671875 1.1059570312500002 L 2.22509765625 1.1059570312500002 L 2.22509765625 0.017578125000000222 M 2.69384765625 0.4599609375000002 Q 2.75390625 0.4599609375000002 2.794921875 0.4486083984375002 Q 2.8359375 0.4372558593750002 2.8604736328125 0.4174804687500002 Q 2.885009765625 0.3977050781250002 2.8956298828125 0.3720703125000002 Q 2.90625 0.3464355468750002 2.90625 0.3186035156250002 Q 2.90625 0.2907714843750002 2.8956298828125 0.2651367187500002 Q 2.885009765625 0.23950195312500022 2.8604736328125 0.22009277343750022 Q 2.8359375 0.20068359375000022 2.794921875 0.18896484375000022 Q 2.75390625 0.17724609375000022 2.69384765625 0.17724609375000022 L 2.649169921875 0.17724609375000022 L 2.6484375 0.4599609375000002 L 2.69384765625 0.4599609375000002 M 2.69384765625 0.9462890625000002 Q 2.759033203125 0.9462890625000002 2.8037109375 0.9323730468750002 Q 2.848388671875 0.9184570312500002 2.876220703125 0.8942871093750002 Q 2.904052734375 0.8701171875000002 2.91650390625 0.8375244140625002 Q 2.928955078125 0.8049316406250002 2.928955078125 0.7675781250000002 Q 2.928955078125 0.7346191406250002 2.915771484375 0.7031250000000002 Q 2.902587890625 0.6716308593750002 2.8765869140625 0.6470947265625002 Q 2.8505859375 0.6225585937500002 2.8125 0.6075439453125002 Q 2.7744140625 0.5925292968750002 2.724609375 0.5925292968750002 L 2.6484375 0.5925292968750002 L 2.6484375 0.9462890625000002 L 2.69384765625 0.9462890625000002 M 4.030517578125 0.017578125000000222 L 4.45458984375 0.017578125000000222 L 4.453857421875 1.1059570312500002 L 4.030517578125 1.1059570312500002 L 4.030517578125 0.017578125000000222 M 4.73291015625 0.017578125000000222 L 4.998046875 0.017578125000000222 L 5.688720703125 0.5976562500000002 L 5.689453125 0.017578125000000222 L 5.8505859375 0.017578125000000222 L 5.8505859375 1.1059570312500002 L 5.58544921875 1.1059570312500002 L 4.89404296875 0.5280761718750002 L 4.89404296875 1.1059570312500002 L 4.73291015625 1.1059570312500002 L 4.73291015625 0.017578125000000222 M 6.019775390625 0.017578125000000222 L 6.4833984375 0.017578125000000222 L 6.73828125 0.7170410156250002 L 6.97412109375 0.017578125000000222 L 7.165283203125 0.016845703125000222 L 6.78369140625 1.1059570312500002 L 6.438720703125 1.1052246093750002 L 6.019775390625 0.017578125000000222 M 7.31396484375 0.017578125000000222 L 8.23388671875 0.017578125000000222 L 8.23388671875 0.18530273437500022 L 7.738037109375 0.18530273437500022 L 7.7373046875 0.4790039062500002 L 8.11669921875 0.4790039062500002 L 8.11669921875 0.6467285156250002 L 7.7373046875 0.6467285156250002 L 7.7373046875 0.9382324218750002 L 8.23388671875 0.9382324218750002 L 8.23388671875 1.1059570312500002 L 7.31396484375 1.1059570312500002 L 7.31396484375 0.017578125000000222 M 8.466064453125 0.8642578125000002 Q 8.543701171875 0.9038085937500002 8.628662109375 0.9235839843750002 Q 8.713623046875 0.9433593750000002 8.786865234375 0.9433593750000002 Q 8.87109375 0.9433593750000002 8.9102783203125 0.9191894531250002 Q 8.949462890625 0.8950195312500002 8.949462890625 0.8532714843750002 Q 8.949462890625 0.8400878906250002 8.9447021484375 0.8261718750000002 Q 8.93994140625 0.8122558593750002 8.9263916015625 0.7987060546875002 Q 8.912841796875 0.7851562500000002 8.8890380859375 0.7716064453125002 Q 8.865234375 0.7580566406250002 8.8271484375 0.7448730468750002 L 8.696044921875 0.7001953125000002 Q 8.555419921875 0.6518554687500002 8.484375 0.5694580078125002 Q 8.413330078125 0.4870605468750002 8.413330078125 0.3735351562500002 Q 8.413330078125 0.3002929687500002 8.444091796875 0.23254394531250022 Q 8.474853515625 0.16479492187500022 8.537109375 0.11315917968750022 Q 8.599365234375 0.06152343750000022 8.6942138671875 0.030761718750000222 Q 8.7890625 2.220446049250313e-16 8.91650390625 2.220446049250313e-16 Q 8.9794921875 2.220446049250313e-16 9.037353515625 0.007324218750000222 Q 9.09521484375 0.014648437500000222 9.1461181640625 0.026367187500000222 Q 9.197021484375 0.03808593750000022 9.239501953125 0.05310058593750022 Q 9.281982421875 0.06811523437500022 9.314208984375 0.08276367187500022 L 9.235107421875 0.22558593750000022 Q 9.211669921875 0.21093750000000022 9.1856689453125 0.19995117187500022 Q 9.15966796875 0.18896484375000022 9.1336669921875 0.18164062500000022 Q 9.107666015625 0.17431640625000022 9.082763671875 0.17065429687500022 Q 9.057861328125 0.16699218750000022 9.037353515625 0.16699218750000022 Q 9.002197265625 0.16699218750000022 8.975830078125 0.17614746093750022 Q 8.949462890625 0.18530273437500022 8.9315185546875 0.20031738281250022 Q 8.91357421875 0.21533203125000022 8.9044189453125 0.23400878906250022 Q 8.895263671875 0.2526855468750002 8.895263671875 0.2709960937500002 Q 8.895263671875 0.2871093750000002 8.9029541015625 0.3021240234375002 Q 8.91064453125 0.3171386718750002 8.9293212890625 0.3314208984375002 Q 8.947998046875 0.3457031250000002 8.9783935546875 0.3599853515625002 Q 9.0087890625 0.3742675781250002 9.05419921875 0.3896484375000002 L 9.14208984375 0.4189453125000002 Q 9.284912109375 0.4665527343750002 9.3603515625 0.5500488281250002 Q 9.435791015625 0.6335449218750002 9.435791015625 0.7521972656250002 Q 9.435791015625 0.8327636718750002 9.3995361328125 0.9008789062500002 Q 9.36328125 0.9689941406250002 9.29150390625 1.0184326171875002 Q 9.2197265625 1.0678710937500002 9.1131591796875 1.0953369140625002 Q 9.006591796875 1.1228027343750002 8.865966796875 1.1228027343750002 Q 8.798583984375 1.1228027343750002 8.7359619140625 1.1158447265625002 Q 8.67333984375 1.1088867187500002 8.6136474609375 1.0949707031250002 Q 8.553955078125 1.0810546875000002 8.49609375 1.0598144531250002 Q 8.438232421875 1.0385742187500002 8.38037109375 1.0100097656250002 L 8.466064453125 0.8642578125000002 M 9.829833984375 0.18457031250000022 L 9.519287109375 0.18457031250000022 L 9.519287109375 0.016845703125000222 L 10.563720703125 0.016845703125000222 L 10.563720703125 0.18457031250000022 L 10.253173828125 0.18457031250000022 L 10.253173828125 1.1059570312500002 L 9.829833984375 1.1059570312500002 L 9.829833984375 0.18457031250000022 M 10.72265625 0.017578125000000222 L 11.022216796875 0.017578125000000222 L 11.433837890625 0.5874023437500002 L 11.824951171875 0.017578125000000222 L 12.116455078125 0.017578125000000222 L 12.116455078125 1.1059570312500002 L 11.69384765625 1.1059570312500002 L 11.69384765625 0.5500488281250002 L 11.2880859375 1.1198730468750002 L 10.8837890625 0.5500488281250002 L 10.8837890625 1.1059570312500002 L 10.72265625 1.1059570312500002 L 10.72265625 0.017578125000000222 M 12.394775390625 0.017578125000000222 L 13.314697265625 0.017578125000000222 L 13.314697265625 0.18530273437500022 L 12.81884765625 0.18530273437500022 L 12.818115234375 0.4790039062500002 L 13.197509765625 0.4790039062500002 L 13.197509765625 0.6467285156250002 L 12.818115234375 0.6467285156250002 L 12.818115234375 0.9382324218750002 L 13.314697265625 0.9382324218750002 L 13.314697265625 1.1059570312500002 L 12.394775390625 1.1059570312500002 L 12.394775390625 0.017578125000000222 M 13.5322265625 0.017578125000000222 L 13.79736328125 0.017578125000000222 L 14.488037109375 0.5976562500000002 L 14.48876953125 0.017578125000000222 L 14.64990234375 0.017578125000000222 L 14.64990234375 1.1059570312500002 L 14.384765625 1.1059570312500002 L 13.693359375 0.5280761718750002 L 13.693359375 1.1059570312500002 L 13.5322265625 1.1059570312500002 L 13.5322265625 0.017578125000000222 M 15.119384765625 0.18457031250000022 L 14.808837890625 0.18457031250000022 L 14.808837890625 0.016845703125000222 L 15.853271484375 0.016845703125000222 L 15.853271484375 0.18457031250000022 L 15.542724609375 0.18457031250000022 L 15.542724609375 1.1059570312500002 L 15.119384765625 1.1059570312500002 L 15.119384765625 0.18457031250000022" fill="#212245" fill-rule="nonzero"></path></g><g><path d=" M 10.494747802734375 2.3608505859375 L 10.494747802734375 1.8283505859375 L 10.844247802734374 1.8283505859375 L 10.844247802734374 1.8748505859375 L 10.547247802734374 1.8748505859375 L 10.547247802734374 2.0706005859375 L 10.797747802734374 2.0706005859375 L 10.797747802734374 2.1141005859375 L 10.547247802734374 2.1141005859375 L 10.547247802734374 2.3608505859375 L 10.494747802734375 2.3608505859375 M 11.15436474609375 2.3646005859375 Q 11.091364746093749 2.3646005859375 11.04786474609375 2.3421005859375 Q 11.00436474609375 2.3196005859375 10.97886474609375 2.2817255859375 Q 10.953364746093749 2.2438505859375 10.941739746093749 2.1958505859375 Q 10.93011474609375 2.1478505859375 10.93011474609375 2.0968505859375 L 10.93011474609375 1.8283505859375 L 10.98186474609375 1.8283505859375 L 10.98186474609375 2.0968505859375 Q 10.98186474609375 2.1381005859375 10.990489746093749 2.1778505859375 Q 10.999114746093749 2.2176005859375 11.01861474609375 2.2491005859375 Q 11.038114746093749 2.2806005859375 11.07111474609375 2.2989755859375 Q 11.10411474609375 2.3173505859375 11.15361474609375 2.3173505859375 Q 11.20461474609375 2.3173505859375 11.23798974609375 2.2982255859375 Q 11.271364746093749 2.2791005859375 11.29048974609375 2.2476005859375 Q 11.30961474609375 2.2161005859375 11.317864746093749 2.1767255859375 Q 11.326114746093749 2.1373505859375 11.326114746093749 2.0968505859375 L 11.326114746093749 1.8283505859375 L 11.37861474609375 1.8283505859375 L 11.37861474609375 2.0968505859375 Q 11.37861474609375 2.1501005859375 11.366614746093749 2.1988505859375 Q 11.35461474609375 2.2476005859375 11.327989746093749 2.2843505859375 Q 11.30136474609375 2.3211005859375 11.25861474609375 2.3428505859375 Q 11.21586474609375 2.3646005859375 11.15436474609375 2.3646005859375 M 11.557493408203124 1.9251005859374999 L 11.557493408203124 2.3608505859375 L 11.504993408203125 2.3608505859375 L 11.504993408203125 1.8283505859375 L 11.548493408203125 1.8283505859375 L 11.897993408203124 2.2723505859375 L 11.897993408203124 1.8291005859374998 L 11.950493408203124 1.8291005859374998 L 11.950493408203124 2.3608505859375 L 11.901743408203124 2.3608505859375 L 11.557493408203124 1.9251005859374999 M 12.085097900390625 2.3608505859375 L 12.085097900390625 1.8283505859375 L 12.265847900390625 1.8283505859375 Q 12.350597900390625 1.8283505859375 12.407222900390625 1.8639755859375 Q 12.463847900390626 1.8996005859375 12.492347900390625 1.9599755859374999 Q 12.520847900390624 2.0203505859375 12.520847900390624 2.0938505859375 Q 12.520847900390624 2.1748505859375 12.489722900390625 2.2348505859375 Q 12.458597900390625 2.2948505859375 12.401222900390625 2.3278505859375 Q 12.343847900390625 2.3608505859375 12.265847900390625 2.3608505859375 L 12.085097900390625 2.3608505859375 M 12.468347900390624 2.0938505859375 Q 12.468347900390624 2.0301005859375 12.444722900390625 1.9806005859375 Q 12.421097900390624 1.9311005859375 12.376097900390624 1.9029755859375 Q 12.331097900390624 1.8748505859375 12.265847900390625 1.8748505859375 L 12.137597900390624 1.8748505859375 L 12.137597900390624 2.3143505859375 L 12.265847900390625 2.3143505859375 Q 12.331847900390624 2.3143505859375 12.376847900390624 2.2851005859374998 Q 12.421847900390624 2.2558505859375 12.445097900390625 2.2059755859375 Q 12.468347900390624 2.1561005859374998 12.468347900390624 2.0938505859375 M 12.814871704101563 2.3608505859375 L 12.814871704101563 1.8283505859375 L 12.867371704101561 1.8283505859375 L 12.867371704101561 2.3143505859375 L 13.174871704101562 2.3143505859375 L 13.174871704101562 2.3608505859375 L 12.814871704101563 2.3608505859375 M 13.5472529296875 1.8748505859375 L 13.3575029296875 1.8748505859375 L 13.3575029296875 2.3608505859375 L 13.3050029296875 2.3608505859375 L 13.3050029296875 1.8748505859375 L 13.1152529296875 1.8748505859375 L 13.1152529296875 1.8283505859375 L 13.5472529296875 1.8283505859375 L 13.5472529296875 1.8748505859375 M 13.627866943359376 2.3608505859375 L 13.627866943359376 1.8283505859375 L 13.808616943359375 1.8283505859375 Q 13.893366943359375 1.8283505859375 13.949991943359375 1.8639755859375 Q 14.006616943359376 1.8996005859375 14.035116943359375 1.9599755859374999 Q 14.063616943359374 2.0203505859375 14.063616943359374 2.0938505859375 Q 14.063616943359374 2.1748505859375 14.032491943359375 2.2348505859375 Q 14.001366943359375 2.2948505859375 13.943991943359375 2.3278505859375 Q 13.886616943359375 2.3608505859375 13.808616943359375 2.3608505859375 L 13.627866943359376 2.3608505859375 M 14.011116943359374 2.0938505859375 Q 14.011116943359374 2.0301005859375 13.987491943359375 1.9806005859375 Q 13.963866943359374 1.9311005859375 13.918866943359374 1.9029755859375 Q 13.873866943359374 1.8748505859375 13.808616943359375 1.8748505859375 L 13.680366943359374 1.8748505859375 L 13.680366943359374 2.3143505859375 L 13.808616943359375 2.3143505859375 Q 13.874616943359374 2.3143505859375 13.919616943359374 2.2851005859374998 Q 13.964616943359374 2.2558505859375 13.987866943359375 2.2059755859375 Q 14.011116943359374 2.1561005859374998 14.011116943359374 2.0938505859375 M 14.136779296875 2.3608505859375 L 14.136779296875 2.2873505859375 L 14.181029296875 2.2873505859375 L 14.181029296875 2.3608505859375 L 14.136779296875 2.3608505859375 M 14.801302368164063 1.9281005859375 Q 14.790052368164062 1.9153505859375 14.775052368164062 1.9052255859375 Q 14.760052368164063 1.8951005859375 14.741302368164062 1.8876005859375 Q 14.722552368164063 1.8801005859375 14.701177368164062 1.8756005859375 Q 14.679802368164063 1.8711005859375 14.655802368164062 1.8711005859375 Q 14.586052368164063 1.8711005859375 14.553427368164062 1.8977255859375 Q 14.520802368164063 1.9243505859374999 14.520802368164063 1.9701005859375 Q 14.520802368164063 2.0016005859375 14.536177368164063 2.0196005859375 Q 14.551552368164062 2.0376005859375 14.584552368164063 2.0488505859375 Q 14.617552368164063 2.0601005859375 14.668552368164063 2.0721005859375 Q 14.725552368164063 2.0841005859375 14.766802368164063 2.1006005859375 Q 14.808052368164063 2.1171005859375 14.830552368164062 2.1452255859375 Q 14.853052368164063 2.1733505859375 14.853052368164063 2.2213505859375 Q 14.853052368164063 2.2581005859375 14.838802368164062 2.2851005859374998 Q 14.824552368164062 2.3121005859375 14.799052368164062 2.3301005859375 Q 14.773552368164063 2.3481005859375 14.738302368164062 2.3567255859375 Q 14.703052368164062 2.3653505859375 14.661052368164063 2.3653505859375 Q 14.619802368164063 2.3653505859375 14.581927368164063 2.3567255859375 Q 14.544052368164062 2.3481005859375 14.510302368164062 2.3312255859375 Q 14.476552368164063 2.3143505859375 14.447302368164062 2.2881005859375 L 14.473552368164063 2.2453505859375 Q 14.487802368164063 2.2603505859375 14.507677368164062 2.2734755859374998 Q 14.527552368164063 2.2866005859375 14.551927368164062 2.2971005859374998 Q 14.576302368164063 2.3076005859375 14.604427368164062 2.3132255859375 Q 14.632552368164063 2.3188505859375 14.662552368164063 2.3188505859375 Q 14.726302368164063 2.3188505859375 14.761927368164063 2.2956005859375 Q 14.797552368164062 2.2723505859375 14.797552368164062 2.2266005859374998 Q 14.797552368164062 2.1936005859375 14.779552368164062 2.1737255859375 Q 14.761552368164063 2.1538505859375 14.725552368164063 2.1411005859375 Q 14.689552368164062 2.1283505859375 14.637052368164062 2.1163505859375 Q 14.581552368164063 2.1036005859375 14.543302368164062 2.0878505859375 Q 14.505052368164062 2.0721005859375 14.485927368164063 2.0462255859375 Q 14.466802368164062 2.0203505859375 14.466802368164062 1.9776005859374999 Q 14.466802368164062 1.9281005859375 14.491177368164063 1.8939755859375 Q 14.515552368164062 1.8598505859375 14.558302368164062 1.8422255859374999 Q 14.601052368164062 1.8246005859375 14.656552368164062 1.8246005859375 Q 14.691802368164062 1.8246005859375 14.722177368164063 1.8317255859375 Q 14.752552368164062 1.8388505859375 14.778427368164062 1.8523505859374998 Q 14.804302368164063 1.8658505859374999 14.826802368164062 1.8861005859375 L 14.801302368164063 1.9281005859375 M 15.101672973632812 1.8283505859375 L 15.145922973632812 1.8283505859375 L 15.367172973632812 2.3608505859375 L 15.311672973632813 2.3608505859375 L 15.242672973632812 2.1943505859375 L 15.003422973632812 2.1943505859375 L 14.935172973632813 2.3608505859375 L 14.878922973632813 2.3608505859375 L 15.101672973632812 1.8283505859375 M 15.230672973632812 2.1531005859375 L 15.123422973632813 1.8898505859374999 L 15.014672973632813 2.1531005859375 L 15.230672973632812 2.1531005859375 M 15.390066284179687 2.0908505859375 Q 15.390066284179687 2.0421005859375 15.406941284179688 1.9952255859374999 Q 15.423816284179688 1.9483505859374999 15.456066284179688 1.9097255859375 Q 15.488316284179687 1.8711005859375 15.535566284179687 1.8482255859375 Q 15.582816284179687 1.8253505859375 15.642816284179688 1.8253505859375 Q 15.714066284179687 1.8253505859375 15.764691284179687 1.8579755859375 Q 15.815316284179687 1.8906005859375 15.839316284179688 1.9416005859375 L 15.798066284179688 1.9671005859375 Q 15.780816284179688 1.9318505859375 15.754566284179688 1.9112255859375 Q 15.728316284179687 1.8906005859375 15.698691284179688 1.8816005859375 Q 15.669066284179687 1.8726005859375 15.639816284179688 1.8726005859375 Q 15.591816284179687 1.8726005859375 15.555066284179688 1.8917255859375 Q 15.518316284179688 1.9108505859375 15.493191284179687 1.9427255859374999 Q 15.468066284179688 1.9746005859375 15.455316284179688 2.0139755859375 Q 15.442566284179687 2.0533505859375 15.442566284179687 2.0938505859375 Q 15.442566284179687 2.1381005859375 15.457566284179688 2.1786005859375 Q 15.472566284179688 2.2191005859375 15.499566284179688 2.2502255859374998 Q 15.526566284179687 2.2813505859375 15.562941284179688 2.2997255859375 Q 15.599316284179688 2.3181005859375 15.642066284179688 2.3181005859375 Q 15.672066284179687 2.3181005859375 15.703566284179688 2.3076005859375 Q 15.735066284179688 2.2971005859374998 15.762441284179687 2.2753505859375 Q 15.789816284179688 2.2536005859375 15.806316284179687 2.2191005859375 L 15.849816284179688 2.2416005859375 Q 15.833316284179688 2.2813505859375 15.798816284179688 2.3091005859375 Q 15.764316284179687 2.3368505859375 15.721941284179687 2.3511005859375 Q 15.679566284179687 2.3653505859375 15.639066284179687 2.3653505859375 Q 15.584316284179687 2.3653505859375 15.538566284179687 2.3417255859375 Q 15.492816284179687 2.3181005859375 15.459441284179688 2.2787255859375 Q 15.426066284179688 2.2393505859375 15.408066284179688 2.1902255859375 Q 15.390066284179687 2.1411005859375 15.390066284179687 2.0908505859375" fill="#212245" fill-rule="nonzero"></path></g></g><defs><clipPath id="SvgjsClipPath24718"><path d=" M 16.273046875 -1.2956556907701866 h 3.9248005868837437 v 4.952161967477873 h -3.9248005868837437 Z"></path></clipPath><clipPath id="SvgjsClipPath247131b57d7c4-c1da-4fb2-89fa-45b057288414"><path d=" M 16.273046875 -1.2956556907701866 L 20.197847461883743 -1.2956556907701866 L 20.197847461883743 3.6565062767076864 L 16.273046875 3.6565062767076864 Z"></path></clipPath></defs></svg>