<?xml version="1.0" encoding="UTF-8"?>
<!DOCTYPE svg PUBLIC "-//W3C//DTD SVG 1.1//EN" "http://www.w3.org/Graphics/SVG/1.1/DTD/svg11.dtd">
<svg xmlns="http://www.w3.org/2000/svg" version="1.1" width="1920px" height="968px" style="shape-rendering:geometricPrecision; text-rendering:geometricPrecision; image-rendering:optimizeQuality; fill-rule:evenodd; clip-rule:evenodd" xmlns:xlink="http://www.w3.org/1999/xlink">
<g><path style="opacity:0.997" fill="#fff" d="M -0.5,-0.5 C 31.8333,-0.5 64.1667,-0.5 96.5,-0.5C 72.3137,-0.814376 60.1471,11.1856 60,35.5C 59.3333,313.167 59.3333,590.833 60,868.5C 57.9099,884.825 64.0766,896.659 78.5,904C 82.9153,905.069 87.4153,905.569 92,905.5C 672.548,852.208 1253.05,798.374 1833.5,744C 1843.47,742.353 1850.97,737.186 1856,728.5C 1857.93,722.327 1858.93,715.994 1859,709.5C 1859.67,485.167 1859.67,260.833 1859,36.5C 1859.46,12.1328 1847.63,-0.200511 1823.5,-0.5C 1855.5,-0.5 1887.5,-0.5 1919.5,-0.5C 1919.5,322.167 1919.5,644.833 1919.5,967.5C 1279.5,967.5 639.5,967.5 -0.5,967.5C -0.5,644.833 -0.5,322.167 -0.5,-0.5 Z"/></g>
</svg>
