<svg xmlns="http://www.w3.org/2000/svg" width="1920" height="105" viewBox="0 0 1920 105" version="1.1"><path d="M 476 48.067 C 215.025 74.371, 1.163 95.917, 0.750 95.946 C 0.337 95.976, 0 98.025, 0 100.501 L 0 105.001 960.170 104.751 L 1920.340 104.500 1920.092 53.505 C 1919.955 25.458, 1919.714 2.381, 1919.557 2.223 C 1919.399 2.065, 1711.139 22.876, 1456.757 48.468 C 1202.375 74.061, 992.346 95, 990.026 95 C 984.930 95, 980.920 92.800, 978.386 88.614 C 976.650 85.747, 976.460 82.432, 976 46.821 C 975.518 9.520, 975.425 8.041, 973.404 5.321 C 970.211 1.025, 967.320 0.019, 958.500 0.135 C 954.100 0.193, 736.975 21.762, 476 48.067" stroke="none" fill="#1E2636" fill-rule="evenodd"/><path d="" stroke="none" fill="#1E2636" fill-rule="evenodd"/></svg>